<svg width="420" height="420" viewBox="0 0 420 420" fill="none" xmlns="http://www.w3.org/2000/svg">
<rect width="420" height="420" rx="210" fill="white"/>
<path fill-rule="evenodd" clip-rule="evenodd" d="M75.4241 107.184H113.587L159.349 228.616C147.503 229.619 138.201 239.552 138.201 251.657V254.106C138.201 265.968 147.859 275.544 159.691 275.474C159.837 275.482 159.985 275.485 160.133 275.485L322.034 275.169C326.771 275.16 330.593 271.303 330.56 266.566C330.527 261.843 326.671 258.035 321.947 258.063L166.687 258.964L165.245 258.934C160.242 258.828 156.245 254.746 156.245 249.742V248.661C156.245 246.758 157.047 244.941 158.455 243.657C159.226 242.954 160.15 242.438 161.154 242.15L164.004 241.333L326.122 214.344C330.545 214.471 334.721 211.547 335.96 207.16L353.198 146.069C353.584 144.702 353.458 143.334 352.934 142.156C353.599 140.826 353.974 139.325 353.974 137.736C353.974 133.736 350.731 130.494 346.731 130.494H142.246L130.294 98.7783C128.293 93.4668 125.039 89.5381 119.213 90.0438H75.4241C70.2338 90.0438 66.0263 93.8807 66.0263 98.6137C66.0263 103.347 70.2338 107.184 75.4241 107.184ZM333.146 147.633H148.705L177.446 223.9C177.642 224.419 177.78 224.943 177.863 225.467L318.451 198.487C318.572 198.463 318.693 198.442 318.814 198.423L333.146 147.633ZM218.646 305.319C218.646 318.95 206.528 330 191.58 330C176.632 330 164.515 318.95 164.515 305.319C164.515 291.688 176.632 280.638 191.58 280.638C206.528 280.638 218.646 291.688 218.646 305.319ZM179.48 305.319C179.48 311.413 184.898 316.353 191.58 316.353C198.263 316.353 203.681 311.413 203.681 305.319C203.681 299.225 198.263 294.284 191.58 294.284C184.898 294.284 179.48 299.225 179.48 305.319ZM312.624 305.319C312.624 318.95 300.506 330 285.558 330C270.61 330 258.492 318.95 258.492 305.319C258.492 291.688 270.61 280.638 285.558 280.638C300.506 280.638 312.624 291.688 312.624 305.319ZM273.458 305.319C273.458 311.413 278.875 316.353 285.558 316.353C292.241 316.353 297.658 311.413 297.658 305.319C297.658 299.225 292.241 294.284 285.558 294.284C278.875 294.284 273.458 299.225 273.458 305.319Z" fill="#6526F7"/>
</svg>
